<?xml version="1.0" encoding="UTF-8" standalone="no"?>
<!-- Generator: Adobe Illustrator 19.0.0, SVG Export Plug-In . SVG Version: 6.00 Build 0)  -->

<svg
   version="1.1"
   id="Capa_1"
   x="0px"
   y="0px"
   viewBox="0 0 512 512"
   style="enable-background:new 0 0 512 512;"
   xml:space="preserve"
   sodipodi:docname="buscando.svg"
   inkscape:version="1.1 (c68e22c387, 2021-05-23)"
   xmlns:inkscape="http://www.inkscape.org/namespaces/inkscape"
   xmlns:sodipodi="http://sodipodi.sourceforge.net/DTD/sodipodi-0.dtd"
   xmlns="http://www.w3.org/2000/svg"
   xmlns:svg="http://www.w3.org/2000/svg"><defs
   id="defs41" /><sodipodi:namedview
   id="namedview39"
   pagecolor="#505050"
   bordercolor="#ffffff"
   borderopacity="1"
   inkscape:pageshadow="0"
   inkscape:pageopacity="0"
   inkscape:pagecheckerboard="1"
   showgrid="false"
   inkscape:zoom="0.82421875"
   inkscape:cx="545.36493"
   inkscape:cy="416.75829"
   inkscape:window-width="1920"
   inkscape:window-height="1016"
   inkscape:window-x="0"
   inkscape:window-y="27"
   inkscape:window-maximized="1"
   inkscape:current-layer="Capa_1" />
<g
   id="g6"
   transform="matrix(-1,0,0,1,512,0)">
	<g
   id="g4">
		<path
   d="M 447.615,64.386 C 406.095,22.866 350.892,0 292.175,0 233.458,0 178.255,22.866 136.736,64.386 95.217,105.905 72.35,161.108 72.35,219.824 c 0,53.683 19.124,104.421 54.132,144.458 L 4.399,486.366 c -5.864,5.864 -5.864,15.371 0,21.236 2.932,2.931 6.775,4.398 10.617,4.398 3.842,0 7.686,-1.466 10.617,-4.399 L 147.717,385.518 c 40.037,35.007 90.775,54.132 144.458,54.132 58.718,0 113.919,-22.866 155.439,-64.386 41.519,-41.519 64.385,-96.722 64.385,-155.439 0,-58.717 -22.865,-113.92 -64.384,-155.439 z m -21.236,289.643 c -74.001,74 -194.406,74 -268.407,0 -74,-74 -74,-194.407 0,-268.407 37.004,-37.004 85.596,-55.5 134.204,-55.5 48.596,0 97.208,18.505 134.204,55.5 73.998,73.999 73.998,194.406 -10e-4,268.407 z"
   id="path2" />
	</g>
</g>
<g
   id="g8">
</g>
<g
   id="g10">
</g>
<g
   id="g12">
</g>
<g
   id="g14">
</g>
<g
   id="g16">
</g>
<g
   id="g18">
</g>
<g
   id="g20">
</g>
<g
   id="g22">
</g>
<g
   id="g24">
</g>
<g
   id="g26">
</g>
<g
   id="g28">
</g>
<g
   id="g30">
</g>
<g
   id="g32">
</g>
<g
   id="g34">
</g>
<g
   id="g36">
</g>
</svg>
